<?xml version="1.0" encoding="UTF-8" standalone="no"?>
<svg
   id="Layer_1"
   data-name="Layer 1"
   viewBox="0 0 24.000001 24.000001"
   version="1.1"
   sodipodi:docname="androidstudio.svg"
   width="24"
   height="24"
   inkscape:version="1.2.1 (9c6d41e4, 2022-07-14)"
   xmlns:inkscape="http://www.inkscape.org/namespaces/inkscape"
   xmlns:sodipodi="http://sodipodi.sourceforge.net/DTD/sodipodi-0.dtd"
   xmlns="http://www.w3.org/2000/svg"
   xmlns:svg="http://www.w3.org/2000/svg"
   xmlns:rdf="http://www.w3.org/1999/02/22-rdf-syntax-ns#"
   xmlns:cc="http://creativecommons.org/ns#"
   xmlns:dc="http://purl.org/dc/elements/1.1/">
  <sodipodi:namedview
     id="namedview25"
     pagecolor="#ffffff"
     bordercolor="#000000"
     borderopacity="0.25"
     inkscape:showpageshadow="2"
     inkscape:pageopacity="0.0"
     inkscape:pagecheckerboard="0"
     inkscape:deskcolor="#d1d1d1"
     showgrid="false"
     inkscape:zoom="13.344489"
     inkscape:cx="15.062398"
     inkscape:cy="13.188965"
     inkscape:window-width="1792"
     inkscape:window-height="1092"
     inkscape:window-x="0"
     inkscape:window-y="0"
     inkscape:window-maximized="0"
     inkscape:current-layer="Layer_1" />
  <defs
     id="defs4">
    <style
       id="style2">.cls-1{fill:#073042;}.cls-2{fill:#4285f4;}.cls-3{fill:#3870b2;}.cls-4{fill:#fff;}.cls-5{fill:#3ddc84;}</style>
  </defs>
  <title
     id="title6">android-studio</title>
  <g
     id="g141"
     transform="matrix(0.0455139,0,0,0.0455139,2.6877648,0.7)">
    <path
       class="cls-1"
       d="M 153.34,62.74 H 41.18 A 41.3,41.3 0 0 0 0,104 40,40 0 0 0 38.74,145.14 h 1.22 114.58 z"
       id="path8" />
    <path
       class="cls-2"
       d="M 408.84,429.74 H 41.05 A 41.3,41.3 0 0 1 0,388.58 V 103.77 a 41.3,41.3 0 0 0 41.1,41.51 c 0.92,0 1.83,0 2.74,-0.08 H 348.9 c 0,0 59.94,-5.2 59.94,40 z"
       id="path10" />
    <path
       d="m 214.62,231.65 a 22.78,22.78 0 1 0 21.6,14.41 22.92,22.92 0 0 0 -21.6,-14.41 z"
       id="path12" />
    <path
       class="cls-3"
       d="m 237.27,283.87 a 37,37 0 0 0 -21.18,-66.6 h 1.2 a 33.82,33.82 0 0 1 6.52,0 v -22.92 a 7.3,7.3 0 0 0 -3.46,-6.52 7.19,7.19 0 0 0 -7.33,0 7.3,7.3 0 0 0 -3.46,6.52 v 23.32 a 37.16,37.16 0 0 0 -16.25,66.6 L 125.5,429.21 h 44.23 L 201,362.6 a 16.26,16.26 0 0 1 14.66,-9.19 16,16 0 0 1 14.52,9.19 l 32.23,66.61 h 44.79 z m -22.65,-6.53 a 23,23 0 1 1 22.91,-22.91 22.91,22.91 0 0 1 -22.91,22.91 z"
       id="path14" />
    <path
       class="cls-4"
       d="m 129.1,83 h 157.32 v 28.9 H 129.1 Z"
       id="path16" />
    <path
       class="cls-1"
       d="m 202.37,231.65 a 22.77,22.77 0 1 1 -16.26,6.66 23.25,23.25 0 0 1 16.26,-6.66 z m 9,-13.32 v -24 a 7.3,7.3 0 0 0 -3.46,-6.52 7.19,7.19 0 0 0 -7.33,0 7.32,7.32 0 0 0 -3.46,6.52 v 23.32 a 37.16,37.16 0 0 0 -16.25,66.6 L 95.8,467.44 a 20.24,20.24 0 0 0 1.46,20.38 20.54,20.54 0 0 0 18.52,8.66 20.13,20.13 0 0 0 16.52,-12 L 189,362.6 a 16.39,16.39 0 0 1 14.66,-9.19 16,16 0 0 1 14.52,9.19 l 58.21,121.22 a 20.134978,20.134978 0 1 0 36.23,-17.58 L 225,283.87 a 37.48,37.48 0 0 0 -13.32,-65.4"
       id="path18" />
    <path
       class="cls-5"
       d="m 263.64,108.43 a 10.66,10.66 0 0 1 -7.72,-18.25 10.79,10.79 0 0 1 18.38,7.6 10.65,10.65 0 0 1 -10.66,10.65 v 0 m -118.42,0 a 10.66,10.66 0 0 1 -7.6,-18.25 10.793195,10.793195 0 0 1 16.69,13.69 10.63,10.63 0 0 1 -1.5,1.5 10.51,10.51 0 0 1 -7.59,3.06 m 122.29,-64.6 21.31,-37 A 4.53,4.53 0 0 0 281.09,2.3 l -21.58,37.53 a 134.25,134.25 0 0 0 -110,0 L 127.77,2.26 A 4.54,4.54 0 0 0 123.9,0 4.92,4.92 0 0 0 120,2.26 a 4.53,4.53 0 0 0 0,4.53 l 21.45,37 A 126.8,126.8 0 0 0 76,145.2 H 333.1 A 126.85,126.85 0 0 0 267.51,43.83"
       id="path20" />
    <path
       class="cls-1"
       d="M 371.94,224.19 H 355 a 2.14,2.14 0 0 0 -2.14,2.14 v 0 267.08 a 2.13,2.13 0 0 0 2,2.13 h 17.45 a 37,37 0 0 0 36.9,-37 V 187.16 a 37,37 0 0 1 -37,37 z"
       id="path22" />
  </g>
  <metadata
     id="metadata27">
    <rdf:RDF>
      <cc:Work
         rdf:about="">
        <dc:title>android-studio</dc:title>
      </cc:Work>
    </rdf:RDF>
  </metadata>
</svg>
