<svg xmlns="http://www.w3.org/2000/svg" version="1.1" xmlns:xlink="http://www.w3.org/1999/xlink" xmlns:svgjs="http://svgjs.com/svgjs" width="1440" height="560" preserveAspectRatio="none" viewBox="0 0 1440 560"><g mask="url(&quot;#SvgjsMask1011&quot;)" fill="none"><rect width="1440" height="560" x="0" y="0" fill="rgba(68, 133, 153, 1)"></rect><path d="M1440 0L1304.83 0L1440 147.47z" fill="rgba(255, 255, 255, .1)"></path><path d="M1304.83 0L1440 147.47L1440 358.35L729.18 0z" fill="rgba(255, 255, 255, .075)"></path><path d="M729.1800000000001 0L1440 358.35L1440 369.54L698.5000000000001 0z" fill="rgba(255, 255, 255, .05)"></path><path d="M698.5000000000001 0L1440 369.54L1440 475.67L233.29000000000013 0z" fill="rgba(255, 255, 255, .025)"></path><path d="M0 560L332.69 560L0 519.05z" fill="rgba(0, 0, 0, .1)"></path><path d="M0 519.05L332.69 560L834.4300000000001 560L0 336.4z" fill="rgba(0, 0, 0, .075)"></path><path d="M0 336.4L834.4300000000001 560L836.2900000000001 560L0 224.97999999999996z" fill="rgba(0, 0, 0, .05)"></path><path d="M0 224.97999999999996L836.2900000000001 560L1207.43 560L0 166.78999999999996z" fill="rgba(0, 0, 0, .025)"></path></g><defs><mask id="SvgjsMask1011"><rect width="1440" height="560" fill="#ffffff"></rect></mask></defs></svg>