<?xml version="1.0" encoding="UTF-8" standalone="no"?>
<svg xmlns="http://www.w3.org/2000/svg" xmlns:xlink= "http://www.w3.org/1999/xlink" width="600" height="390" aria-label="A chart." style="overflow: hidden;">
<defs id="_ABSTRACT_RENDERER_ID_10"></defs>
<rect x="0" y="0" width="600" height="390" stroke="none" stroke-width="0" fill="#ffffff"></rect>
<g>
<text text-anchor="start" x="115" y="52.05" font-family="Arial" font-size="13" font-weight="bold" stroke="none" stroke-width="0" fill="#000000">Technology Poll Results</text>
<rect x="115" y="41" width="371" height="13" stroke="none" stroke-width="0" fill-opacity="0" fill="#ffffff"></rect>
</g>
<g><path d="M267.35971239274085,161.76067977162973L216.8992809818521,110.40169942907434A120,120,0,0,1,301,76L301,148A48,48,0,0,0,267.35971239274085,161.76067977162973" stroke="#ffffff" stroke-width="1" fill="#ff9900"></path>
<text text-anchor="start" x="256.79913597913986" y="109.60625407544394" font-family="Arial" font-size="13" stroke="none" stroke-width="0" fill="#ffffff">11</text>
</g>
<g>
<path d="M258.34766808846274,218.01768794646836L194.3691702211568,251.04421986617092A120,120,0,0,1,216.89928098185197,110.40169942907444L267.3597123927408,161.76067977162978A48,48,0,0,0,258.34766808846274,218.01768794646836" stroke="#ffffff" stroke-width="1" fill="#dc3912"></path>
<text text-anchor="start" x="196.3173478958504" y="184.9018093641583" font-family="Arial" font-size="13" stroke="none" stroke-width="0" fill="#ffffff">18</text>
</g>
<g>
<path d="M301,148L301,76A120,120,0,1,1,194.3691702211568,251.04421986617092L258.34766808846274,218.01768794646836A48,48,0,1,0,301,148" stroke="#ffffff" stroke-width="1" fill="#3366cc"></path>
<text text-anchor="start" x="377.3722610900405" y="251.3374718020751" font-family="Arial" font-size="13" stroke="none" stroke-width="0" fill="#ffffff">60</text>
</g>
<g><g><g>
<text text-anchor="end" x="486" y="237.03269468479607" font-family="Arial" font-size="13" stroke="none" stroke-width="0" fill="#222222">React</text></g>
<g>
<text text-anchor="end" x="486" y="258.06730531520395" font-family="Arial" font-size="13" stroke="none" stroke-width="0" fill="#9e9e9e">67.4%</text></g></g>
<g><path d="M378.5,243.5L434,243.5L434,243.5L486.5,243.5" stroke="#636363" stroke-width="1" stroke-opacity="0.7" fill-opacity="1" fill="none"></path>
<circle cx="378.5" cy="243.5" r="2" stroke="none" stroke-width="0" fill-opacity="0.7" fill="#636363"></circle></g>
<g><g><text text-anchor="start" x="115" y="176.03269468479607" font-family="Arial" font-size="13" stroke="none" stroke-width="0" fill="#222222">Flutter</text></g>
<g><text text-anchor="start" x="115" y="197.06730531520395" font-family="Arial" font-size="13" stroke="none" stroke-width="0" fill="#9e9e9e">20.2%</text></g></g>
<g><path d="M212.5,182.5L168,182.5L168,182.5L115.5,182.5" stroke="#636363" stroke-width="1" stroke-opacity="0.7" fill-opacity="1" fill="none"></path>
<circle cx="212.5" cy="182.5" r="2" stroke="none" stroke-width="0" fill-opacity="0.7" fill="#636363"></circle></g>
<g><g><text text-anchor="start" x="115" y="107.03269468479604" font-family="Arial" font-size="13" stroke="none" stroke-width="0" fill="#222222">Android</text>
</g><g><text text-anchor="start" x="115" y="128.06730531520395" font-family="Arial" font-size="13" stroke="none" stroke-width="0" fill="#9e9e9e">12.4%</text></g></g>
<g><path d="M267.5,113.5L168,113.5L168,113.5L115.5,113.5" stroke="#636363" stroke-width="1" stroke-opacity="0.7" fill-opacity="1" fill="none"></path>
<circle cx="267.5" cy="113.5" r="2" stroke="none" stroke-width="0" fill-opacity="0.7" fill="#636363"></circle></g></g><g></g></svg>