<?xml version="1.0" encoding="UTF-8" standalone="no"?>
<!DOCTYPE svg PUBLIC "-//W3C//DTD SVG 1.1//EN" "http://www.w3.org/Graphics/SVG/1.1/DTD/svg11.dtd">
<svg xmlns="http://www.w3.org/2000/svg" xmlns:xlink="http://www.w3.org/1999/xlink" version="1.1" width="768pt" height="576pt" viewBox="0 0 768 576">
<g enable-background="new">
<clipPath id="cp0">
<path transform="matrix(.24,0,0,.24,0,0)" d="M 0 0 L 3200 0 L 3200 2431.25 L 0 2431.25 Z " fill-rule="evenodd"/>
</clipPath>
<g clip-path="url(#cp0)">
<path transform="matrix(.75,0,0,.75,0,0)" d="M 0 0 L 1024 0 L 1024 778 L 0 778 Z " fill="#ffffff"/>
</g>
<clipPath id="cp1">
<path transform="matrix(.24,0,0,.24,0,0)" d="M 0 0 L 3200 0 L 3200 2400 L 0 2400 Z " fill-rule="evenodd"/>
</clipPath>
<g clip-path="url(#cp1)">
<path transform="matrix(.75,0,0,.75,0,0)" d="M 0 0 L 1024 0 L 1024 768 L 0 768 Z " fill="#ffffff"/>
</g>
<clipPath id="cp2">
<path transform="matrix(.24,0,0,.24,0,0)" d="M 0 0 L 3200 0 L 3200 2400 L 0 2400 Z " fill-rule="evenodd"/>
</clipPath>
<g clip-path="url(#cp2)">
<path transform="matrix(.75,0,0,.75,0,0)" d="M 0 0 L 1024 0 L 1024 768 L 0 768 Z " fill="#211d1e"/>
</g>
<clipPath id="cp3">
<path transform="matrix(.24,0,0,.24,0,0)" d="M 0 0 L 3200 0 L 3200 2400 L 0 2400 Z " fill-rule="evenodd"/>
</clipPath>
<g clip-path="url(#cp3)">
<g id="Layer-1" data-name="P">
</g>
<text fill="#ffffff" xml:space="preserve" transform="matrix(.585493 0 0 .585493 495.7753 417.05308)" font-size="34.96" font-family="Inter"><tspan y="37" x=".015625 22.357789 43.260118 66.89316 92.31357">REACT</tspan></text>
<g id="Layer-1" data-name="P">
</g>
<text fill="#ffffff" xml:space="preserve" transform="matrix(.585493 0 0 .585493 495.7753 417.05308)" font-size="34.96" font-family="Inter"><tspan y="85" x="6.265625 28.061646 48.020647 57.652605 80.094058">67.4%</tspan></text>
<g id="Layer-1" data-name="P">
</g>
<text fill="#ffffff" xml:space="preserve" transform="matrix(.585493 0 0 .585493 49.39524 273.49339)" font-size="34.96" font-family="Inter"><tspan y="37" x=".015625 20.520768 40.18187 66.09877 88.54022 110.981678 131.884">FLUTTER</tspan></text>
<g id="Layer-1" data-name="P">
</g>
<text fill="#ffffff" xml:space="preserve" transform="matrix(.585493 0 0 .585493 49.39524 273.49339)" font-size="34.96" font-family="Inter"><tspan y="85" x="26.03125 47.181825 69.0275 78.659458 99.81003">20.2%</tspan></text>
<g id="Layer-1" data-name="P">
</g>
<text fill="#ffffff" xml:space="preserve" transform="matrix(.585493 0 0 .585493 222.15978 111.10787)" font-size="34.96" font-family="Inter"><tspan y="37" x=".015625 23.648667 49.96277 75.08528 97.427448 124.039447 133.2742">ANDROID</tspan></text>
<g id="Layer-1" data-name="P">
</g>
<text fill="#ffffff" xml:space="preserve" transform="matrix(.585493 0 0 .585493 222.15978 111.10787)" font-size="34.96" font-family="Inter"><tspan y="85" x="30.671875 46.112794 67.26337 76.895328 99.33678">12.4%</tspan></text>
</g>
<clipPath id="cp4">
<path transform="matrix(.24,0,0,.24,0,0)" d="M 750.1309 693.5292 L 2155.3143 693.5292 L 2155.3143 2098.7125 L 750.1309 2098.7125 Z " fill-rule="evenodd"/>
</clipPath>
<g clip-path="url(#cp4)">
<path transform="matrix(1.6862198,0,0,1.6862198,180.03142,166.44699)" d="M 100 0 C 101.48839 -.00000010231831 102.976039 .03321287 104.462947 .09963893 C 105.94985 .166065 107.43454 .26563794 108.917 .3983578 C 110.39946 .5310776 111.87822 .69681218 113.35328 .8955613 C 114.82835 1.0943105 116.29824 1.3258762 117.76297 1.5902587 C 119.22769 1.8546411 120.68578 2.1515766 122.137248 2.4810653 C 123.5887 2.810554 125.03209 3.1722677 126.4674 3.5662063 C 127.90271 3.9601448 129.32852 4.3859159 130.74483 4.843519 C 132.16114 5.301122 133.56652 5.790102 134.96099 6.3104588 C 136.35544 6.830815 137.73761 7.382029 139.10747 7.964101 C 140.47733 8.546173 141.8335 9.158523 143.17601 9.801151 C 144.51853 10.44378 145.84603 11.116045 147.15851 11.817948 C 148.47103 12.519852 149.7672 13.250694 151.04706 14.010474 C 152.3269 14.770253 153.58917 15.558214 154.83385 16.374358 C 156.07852 17.190499 157.30437 18.034008 158.51139 18.904889 C 159.7184 19.775767 160.90537 20.673146 162.07231 21.597025 C 163.23926 22.520905 164.38501 23.470364 165.50957 24.445403 C 166.63411 25.42044 167.73633 26.420088 168.81623 27.444342 C 169.89614 28.468596 170.95267 29.516438 171.9858 30.58787 C 173.01892 31.659298 174.02762 32.753248 175.0119 33.86972 C 175.99617 34.98619 176.95505 36.12407 177.88852 37.28336 C 178.82198 38.442644 179.72911 39.62218 180.60991 40.82197 C 181.49073 42.021764 182.34432 43.240613 183.17069 44.478517 C 183.99707 45.71642 184.79541 46.97215 185.5657 48.2457 C 186.33602 49.519258 187.07752 50.809366 187.79022 52.116029 C 188.50292 53.422689 189.18611 54.744604 189.83979 56.08177 C 190.49346 57.418939 191.11698 58.770025 191.71033 60.135034 C 192.30367 61.500043 192.86626 62.877614 193.3981 64.267749 C 193.92995 65.657878 194.4305 67.05918 194.89977 68.471668 C 195.36904 69.88414 195.80655 71.30638 196.21231 72.738399 C 196.61806 74.17042 196.99166 75.61078 197.3331 77.05947 C 197.67455 78.50817 197.98349 79.96377 198.25994 81.426258 C 198.53638 82.88875 198.78005 84.35668 198.99097 85.830059 C 199.20188 87.30343 199.37979 88.78078 199.52474 90.26209 C 199.66967 91.74341 199.78147 93.22722 199.86016 94.71353 C 199.93883 96.19984 199.9843 97.687168 199.99658 99.17551 C 200.00885 100.66384 199.98792 102.15172 199.93376 103.63913 C 199.87961 105.12653 199.79227 106.61198 199.67177 108.095478 C 199.55127 109.57898 199.39774 111.05906 199.21115 112.53572 C 199.02458 114.01237 198.80513 115.48412 198.55283 116.95097 C 198.30054 118.41782 198.01564 119.87832 197.69814 121.33246 C 197.38062 122.78658 197.03083 124.2329 196.64873 125.67142 C 196.26663 127.10993 195.85263 128.5392 195.40673 129.95922 C 194.96082 131.37924 194.48343 132.78862 193.9746 134.18733 C 193.46576 135.58603 192.92597 136.97269 192.35521 138.3473 C 191.78444 139.72191 191.18329 141.0831 190.55176 142.43087 C 189.92021 143.77863 189.25891 145.11164 188.56786 146.42986 C 187.8768 147.7481 187.15666 149.05025 186.40747 150.33634 C 185.65828 151.62242 184.88076 152.89115 184.07489 154.14252 C 183.26903 155.39388 182.43564 156.62664 181.57476 157.84078 C 180.71385 159.05493 179.8263 160.24927 178.91207 161.42378 C 177.99784 162.59832 177.05786 163.75185 176.09215 164.88439 C 175.12642 166.01696 174.1359 167.1274 173.12058 168.21572 C 172.10524 169.30403 171.06615 170.36914 170.00327 171.41106 C 168.94039 172.45299 167.85478 173.47068 166.74646 174.46413 C 165.63814 175.45758 164.50821 176.4258 163.35666 177.36879 C 162.20513 178.31179 161.03311 179.2286 159.84062 180.11928 C 158.64813 181.00994 157.43636 181.87354 156.20532 182.7101 C 154.97426 183.54666 153.72516 184.35533 152.45801 185.13611 C 151.19084 185.91689 149.90689 186.66899 148.60616 187.39244 C 147.30542 188.11589 145.98918 188.80997 144.65746 189.47466 C 143.32572 190.13932 141.97982 190.77394 140.61974 191.37854 C 139.25966 191.98311 137.88678 192.55704 136.50109 193.10031 C 135.11539 193.6436 133.71825 194.15569 132.3097 194.63657 C 130.90114 195.11746 129.48255 195.5667 128.05393 195.98426 C 126.6253 196.40181 125.18807 196.78726 123.74223 197.14064 C 122.2964 197.49402 120.84341 197.81496 119.38325 198.10346 C 117.92308 198.39196 116.45721 198.64772 114.98563 198.87078 C 113.514049 199.09383 112.038219 199.28392 110.55814 199.44107 C 109.078067 199.5982 107.59522 199.72225 106.109607 199.81317 C 104.624 199.9041 103.1371 199.96184 101.64891 199.98639 C 100.16071 200.01093 98.67272 200.00225 97.18493 199.96036 C 95.69713 199.91847 94.211 199.8434 92.726558 199.73514 C 91.242099 199.62688 89.7608 199.48555 88.28267 199.31116 C 86.80453 199.13677 85.331027 198.92948 83.862148 198.68929 C 82.393268 198.4491 80.93047 198.17624 79.47377 197.87073 C 78.01708 197.56522 76.567928 197.22736 75.12631 196.85715 C 73.6847 196.48693 72.25206 196.0847 70.82841 195.65052 C 69.404758 195.21633 67.99149 194.75058 66.58864 194.2533 C 65.18578 193.756 63.79472 193.22765 62.415456 192.66825 C 61.03619 192.10884 59.670095 191.51895 58.31717 190.89855 C 56.96424 190.27814 55.62583 189.62784 54.301939 188.94768 C 52.97805 188.2675 51.670003 187.55812 50.377786 186.81955 C 49.085569 186.08098 47.81048 185.31394 46.552515 184.51842 C 45.29455 183.72292 44.054967 182.89974 42.833757 182.04889 C 41.612546 181.19803 40.41093 180.32035 39.228914 179.41584 C 38.046895 178.5113 36.885648 177.58087 35.745176 176.62451 C 34.604703 175.66815 33.486139 174.68682 32.389486 173.6805 C 31.29283 172.6742 30.219178 171.64392 29.168528 170.58968 C 28.117877 169.53543 27.091275 168.45825 26.08872 167.35817 C 25.086167 166.25807 24.108662 165.13616 23.156203 163.99242 C 22.203743 162.84868 21.277283 161.68425 20.37682 160.49915 C 19.476355 159.31404 18.602784 158.10944 17.75611 156.88533 C 16.909432 155.66123 16.090493 154.41883 15.29929 153.15813 C 14.508088 151.89746 13.745412 150.61977 13.011262 149.32503 C 12.277112 148.0303 11.57222 146.71984 10.896585 145.39362 C 10.220951 144.0674 9.575247 142.72678 8.959473 141.37175 L 54.479738 120.685878 C 55.095815 122.04158 55.771108 123.36713 56.505624 124.662509 C 57.24014 125.95788 58.03095 127.21793 58.87805 128.44268 C 59.725149 129.66739 60.62516 130.8519 61.578096 131.9962 C 62.531026 133.1405 63.53308 134.24005 64.58426 135.29485 C 65.63543 136.34961 66.73154 137.35543 67.87258 138.31227 C 69.01362 139.2691 70.195049 140.17317 71.41687 141.02446 C 72.63868 141.87574 73.89602 142.67084 75.18889 143.40979 C 76.48174 144.14873 77.80498 144.82855 79.15858 145.44927 C 80.51218 146.06998 81.890758 146.62909 83.29431 147.12662 C 84.69787 147.62416 86.12081 148.05815 87.56314 148.42856 C 89.00547 148.79897 90.46144 149.10433 91.93105 149.34464 C 93.400669 149.58495 94.878078 149.75925 96.363269 149.86757 C 97.84846 149.97588 99.33551 150.01775 100.82444 149.9932 C 102.31337 149.96865 103.79824 149.87776 105.27905 149.72054 C 106.759868 149.5633 108.23071 149.34037 109.691608 149.05173 C 111.152507 148.76308 112.59762 148.40988 114.026958 147.99213 C 115.45628 147.57436 116.86414 147.0937 118.250537 146.55016 C 119.636928 146.00662 120.996318 145.40235 122.32872 144.73734 C 123.66111 144.07231 124.9612 143.34923 126.22898 142.56806 C 127.49678 141.78688 128.72722 140.95075 129.9203 140.05965 C 131.11339 139.16854 132.26436 138.22602 133.37322 137.23207 C 134.48209 136.23813 135.54444 135.19672 136.56026 134.10787 C 137.57608 133.019 138.54132 131.88701 139.45601 130.71192 C 140.3707 129.5368 141.23119 128.32326 142.03745 127.071269 C 142.8437 125.819278 143.59253 124.53383 144.28392 123.214939 C 144.97533 121.89604 145.60655 120.54895 146.17761 119.17366 C 146.74864 117.79836 147.25722 116.400348 147.70337 114.97961 C 148.14949 113.558879 148.5314 112.121089 148.84908 110.66623 C 149.16674 109.21137 149.4189 107.74525 149.60559 106.26787 C 149.79225 104.790477 149.91269 103.30772 149.96689 101.81958 C 150.02108 100.33143 150.0088 98.84383 149.93009 97.35677 C 149.85137 95.86971 149.7065 94.38913 149.49549 92.91503 C 149.28447 91.44092 149.00815 89.97916 148.66654 88.52973 C 148.32492 87.080318 147.91938 85.64902 147.44989 84.23583 C 146.98038 82.82265 146.4488 81.433208 145.85517 80.06751 C 145.26152 78.70182 144.60817 77.36532 143.89513 76.058017 C 143.18207 74.7507 142.41214 73.47778 141.58535 72.23926 C 140.75856 71.00074 139.8782 69.801548 138.94429 68.641689 C 138.01035 67.48181 137.02655 66.3659 135.9929 65.29393 C 134.95928 64.22197 133.8799 63.198228 132.75479 62.222707 C 131.62967 61.247179 130.4633 60.323755 129.2557 59.452444 C 128.04808 58.58113 126.80403 57.765398 125.52354 57.005239 C 124.24303 56.24508 122.93118 55.54352 121.588008 54.90057 C 120.24483 54.257627 118.875659 53.675848 117.4805 53.15523 C 116.085338 52.634614 114.66973 52.177236 113.2337 51.783105 C 111.797679 51.38897 110.34694 51.059648 108.88149 50.79513 C 107.41603 50.530618 105.9417 50.331964 104.4585 50.199178 C 102.975299 50.06639 101.48913 50 100 50 L 100 0 Z " fill="#d4eef0"/>
</g>
<clipPath id="cp5">
<path transform="matrix(.24,0,0,.24,0,0)" d="M 750.1309 693.5292 L 2155.3143 693.5292 L 2155.3143 2098.7125 L 750.1309 2098.7125 Z " fill-rule="evenodd"/>
</clipPath>
<g clip-path="url(#cp5)">
<path transform="matrix(1.6862198,0,0,1.6862198,180.03142,166.44699)" d="M 11.140975 145.87018 C 10.5098099 144.64749 9.904138 143.41231 9.323959 142.16461 C 8.743781 140.91693 8.189591 139.6578 7.6613886 138.38724 C 7.133187 137.11667 6.6314227 135.83574 6.1560966 134.54447 C 5.6807706 133.25319 5.2322866 131.95267 4.8106458 130.64287 C 4.3890049 129.33307 3.9945658 128.01514 3.6273282 126.68908 C 3.2600909 125.36301 2.9203678 124.02992 2.6081594 122.68982 C 2.295951 121.349727 2.011523 120.00376 1.7548757 118.651927 C 1.4982282 117.300098 1.2695797 115.943538 1.06893 114.58226 C .8682804 113.220989 .69580069 111.85615 .5514907 110.487758 C .40718086 109.119358 .2911637 107.748569 .20343933 106.37538 C .11571494 105.002208 .056357996 103.62779 .025368514 102.25216 C -.0056209659 100.876529 -.008216593 99.50084 .017581635 98.12509 C .043379867 96.74935 .09754997 95.374729 .18009196 94.00123 C .26263396 92.627719 .37347753 91.25649 .51262268 89.88756 C .65176787 88.51864 .8190961 87.15317 1.0146076 85.791149 C 1.2101188 84.42912 1.4336467 83.07172 1.6851912 81.71892 C 1.9367359 80.36613 2.2160826 79.0191 2.5232318 77.677829 C 2.830381 76.33656 3.1650708 75.002208 3.5273014 73.67475 C 3.8895326 72.347309 4.278996 71.0279 4.695691 69.71653 C 5.112386 68.40516 5.5559585 67.10294 6.026408 65.809879 C 6.4968588 64.516819 6.993786 63.234014 7.5171897 61.961465 C 8.040593 60.688917 8.590028 59.427705 9.165493 58.177839 C 9.740959 56.92797 10.341966 55.690515 10.9685139 54.465459 C 11.595061 53.240396 12.246615 52.028787 12.923178 50.830625 C 13.59974 49.63246 14.300733 48.44877 15.026157 47.27954 C 15.751582 46.110319 16.50082 44.956556 17.27387 43.818254 C 18.046923 42.679956 18.843129 41.55809 19.662489 40.452665 C 20.481852 39.347238 21.32367 38.259183 22.187945 37.1885 C 23.052222 36.117818 23.93822 35.065427 24.845936 34.03132 C 25.753653 32.99721 26.682318 31.98227 27.631932 30.986498 C 28.581547 29.990727 29.551302 29.01497 30.541195 28.059229 C 31.531088 27.103487 32.54028 26.168576 33.568765 25.254492 L 66.784389 62.627248 C 65.75546 63.541719 64.76599 64.49705 63.815969 65.49324 C 62.865949 66.48943 61.958616 67.5231 61.09397 68.594249 C 60.229326 69.66538 59.410314 70.77034 58.636934 71.90913 C 57.863554 73.04791 57.138437 74.21664 56.461587 75.41531 C 55.784734 76.61398 55.15845 77.83852 54.582738 79.08892 C 54.007028 80.33932 53.48385 81.61132 53.0132 82.90493 C 52.54255 84.19854 52.12603 85.50935 51.763647 86.83737 C 51.40126 88.16538 51.094247 89.50607 50.842596 90.85945 C 50.590944 92.21282 50.39551 93.574268 50.256307 94.94378 C 50.117105 96.31329 50.034597 97.68621 50.00879 99.062549 C 49.98298 100.43887 50.013956 101.81392 50.101716 103.18768 C 50.189477 104.561458 50.333726 105.92927 50.534463 107.29113 C 50.735197 108.652988 50.991735 110.00424 51.304075 111.3449 C 51.616418 112.68556 51.983499 114.01107 52.405324 115.32143 C 52.82714 116.631778 53.302267 117.9225 53.830694 119.1936 C 54.359117 120.464717 54.93905 121.711879 55.570489 122.93509 L 11.140975 145.87018 Z " fill="#adc3cb"/>
</g>
<clipPath id="cp6">
<path transform="matrix(.24,0,0,.24,0,0)" d="M 750.1309 693.5292 L 2155.3143 693.5292 L 2155.3143 2098.7125 L 750.1309 2098.7125 Z " fill-rule="evenodd"/>
</clipPath>
<g clip-path="url(#cp6)">
<path transform="matrix(1.6862198,0,0,1.6862198,180.03142,166.44699)" d="M 29.916068 28.668084 C 32.22648 26.398549 34.64131 24.246302 37.160566 22.211344 C 39.679819 20.176384 42.29163 18.268292 44.996007 16.487063 C 47.700387 14.705836 50.4846 13.059859 53.348649 11.5491299 C 56.212694 10.038401 59.143095 8.670031 62.139848 7.4440205 C 65.13661 6.218011 68.18562 5.1401317 71.28689 4.210381 C 74.38815 3.280631 77.52706 2.5033866 80.70363 1.8786477 C 83.8802 1.2539091 87.079479 .7846166 90.30145 .47077013 C 93.52343 .15692365 96.752948 .00000046041706 99.99 .0000005 L 99.995 50 C 98.37608 50.000165 96.76098 50.07877 95.14969 50.235818 C 93.5384 50.392866 91.938518 50.62761 90.35002 50.94006 C 88.76154 51.252515 87.19193 51.641199 85.641208 52.106115 C 84.09047 52.57103 82.56591 53.10999 81.06753 53.72299 C 79.56915 54.336 78.104007 55.020166 76.67208 55.775487 C 75.24016 56.53081 73.848209 57.353738 72.49621 58.244268 C 71.144229 59.134798 69.83858 60.08874 68.57925 61.106103 C 67.319919 62.123456 66.11285 63.199438 64.95803 64.33404 L 29.916068 28.668084 Z " fill="#8a99a6"/>
</g>
<clipPath id="cp7">
<path transform="matrix(.24,0,0,.24,0,0)" d="M 750.1309 693.5292 L 2155.3143 693.5292 L 2155.3143 2098.7125 L 750.1309 2098.7125 Z " fill-rule="evenodd"/>
</clipPath>
<g clip-path="url(#cp7)">
<path transform="matrix(1.6862198,0,0,1.6862198,180.03142,166.44699)" d="M 100 0 C 99.99668 0 100.000019 .00000016666667 100.01 .0000005 L 100.005 50 C 100.005 50 100.003337 50 100 50 L 100 0 Z " fill="#6a707f"/>
</g>
<clipPath id="cp8">
<path transform="matrix(.24,0,0,.24,0,0)" d="M 0 0 L 3200 0 L 3200 2400 L 0 2400 Z " fill-rule="evenodd"/>
</clipPath>
<g clip-path="url(#cp8)">
<g id="Layer-1" data-name="P">
</g>
<text fill="#ffffff" xml:space="preserve" transform="matrix(.75 0 0 .75 362.37086 35.904909)" font-size="79.99" font-family="LexendDeca"><tspan y="85" x="216.09375 266.00404 312.07508 368.06419 414.1352">STATS</tspan></text>
<g id="Layer-1" data-name="P">
</g>
<text fill="#ffffff" xml:space="preserve" transform="matrix(.75 0 0 .75 391.275 110.577449)" font-size="34.36" font-family="Inter"><tspan y="36" x=".015625 23.247376 43.74597 56.240358 76.2509 94.21158 103.8752 123.25125 135.64803 148.14241 168.15296 181.33063 190.99425 210.12628 229.50234 237.65297 245.8036 267.1319 286.50794 299.00233 307.15296 327.65156 347.7597 357.42335 373.23655 382.90016 404.08204">Votes after validation - 89</tspan></text>
<g id="Layer-1" data-name="P">
</g>
<text fill="#ffffff" xml:space="preserve" transform="matrix(.75 0 0 .75 391.275 110.577449)" font-size="34.36" font-family="Inter"><tspan y="84" x="254.4375 276.40028 296.41084 315.78688 334.9677 347.4621 357.12574 372.93894 382.60255 404.02845">React - 60</tspan></text>
<g id="Layer-1" data-name="P">
</g>
<text fill="#ffffff" xml:space="preserve" transform="matrix(.75 0 0 .75 391.275 110.577449)" font-size="34.36" font-family="Inter"><tspan y="132" x="247.5625 267.71946 275.8701 295.83183 308.3262 320.8206 340.83113 354.0088 363.67243 379.48564 389.14924 404.32795">Flutter - 18</tspan></text>
<g id="Layer-1" data-name="P">
</g>
<text fill="#ffffff" xml:space="preserve" transform="matrix(.75 0 0 .75 391.275 110.577449)" font-size="34.36" font-family="Inter"><tspan y="180" x="232.1875 255.41925 275.5274 296.8557 310.0334 330.53199 338.68263 360.01094 369.67457 385.48777 395.15138 410.33009">Android - 11</tspan></text>
<g id="Layer-1" data-name="P">
<g id="Layer-2" data-name="Span">
</g>
</g>
<text fill="#ffffff" xml:space="preserve" transform="matrix(.75 0 0 .75 391.275 110.577449)" font-size="34.36" font-family="Inter"><tspan y="228" x="425.5"> </tspan></text>
</g>
</g>
</svg>
